<mxfile host="drawio-plugin" modified="2023-05-02T20:56:22.471Z" agent="5.0 (Windows NT 6.2; Win64; x64) AppleWebKit/537.36 (KHTML, like Gecko) Chrome/98.0.4758.102 Safari/537.36" etag="aSOKuXQtWm5clasFaMyC" version="20.5.3" type="embed"><diagram id="rDY3hN9o2LCTOmZPuVuy" name="Page-1"><mxGraphModel dx="998" dy="743" grid="1" gridSize="10" guides="1" tooltips="1" connect="1" arrows="1" fold="1" page="1" pageScale="1" pageWidth="850" pageHeight="1100" math="0" shadow="0"><root><mxCell id="0"/><mxCell id="1" parent="0"/><mxCell id="2" value="Move" style="shape=umlFrame;whiteSpace=wrap;html=1;width=120;height=30;boundedLbl=1;verticalAlign=middle;align=left;spacingLeft=5;" parent="1" vertex="1"><mxGeometry x="40" y="80" width="890" height="640" as="geometry"/></mxCell><mxCell id="7" style="edgeStyle=none;html=1;exitX=0.5;exitY=1;exitDx=0;exitDy=0;entryX=0.5;entryY=0;entryDx=0;entryDy=0;" parent="1" source="3" target="5" edge="1"><mxGeometry relative="1" as="geometry"/></mxCell><mxCell id="3" value="" style="ellipse;fillColor=strokeColor;" parent="1" vertex="1"><mxGeometry x="365" y="90" width="30" height="30" as="geometry"/></mxCell><mxCell id="8" style="edgeStyle=none;html=1;exitX=0.5;exitY=1;exitDx=0;exitDy=0;" parent="1" source="5" target="6" edge="1"><mxGeometry relative="1" as="geometry"/></mxCell><mxCell id="5" value="Enter to Model.Steppable" style="html=1;align=center;verticalAlign=top;rounded=1;absoluteArcSize=1;arcSize=10;dashed=0;" parent="1" vertex="1"><mxGeometry x="310" y="180" width="140" height="40" as="geometry"/></mxCell><mxCell id="10" style="edgeStyle=none;html=1;exitX=0;exitY=0.5;exitDx=0;exitDy=0;entryX=0.5;entryY=0;entryDx=0;entryDy=0;" parent="1" source="6" target="9" edge="1"><mxGeometry relative="1" as="geometry"><Array as="points"><mxPoint x="280" y="255"/></Array></mxGeometry></mxCell><mxCell id="11" value="[true &amp;amp;&amp;amp; not lubricated &amp;amp;&amp;amp; not glued]" style="edgeLabel;html=1;align=center;verticalAlign=middle;resizable=0;points=[];" parent="10" vertex="1" connectable="0"><mxGeometry x="-0.1619" y="-2" relative="1" as="geometry"><mxPoint x="-75" y="-13" as="offset"/></mxGeometry></mxCell><mxCell id="14" style="edgeStyle=none;html=1;exitX=1;exitY=0.5;exitDx=0;exitDy=0;" parent="1" source="6" target="13" edge="1"><mxGeometry relative="1" as="geometry"/></mxCell><mxCell id="15" value="[false]" style="edgeLabel;html=1;align=center;verticalAlign=middle;resizable=0;points=[];" parent="14" vertex="1" connectable="0"><mxGeometry x="-0.3169" y="1" relative="1" as="geometry"><mxPoint x="21" y="-24" as="offset"/></mxGeometry></mxCell><mxCell id="18" style="edgeStyle=none;html=1;exitX=0.5;exitY=1;exitDx=0;exitDy=0;entryX=0.5;entryY=0;entryDx=0;entryDy=0;" parent="1" source="6" target="17" edge="1"><mxGeometry relative="1" as="geometry"><Array as="points"><mxPoint x="380" y="310"/><mxPoint x="410" y="310"/></Array></mxGeometry></mxCell><mxCell id="19" value="[true &amp;amp;&amp;amp; glued &amp;amp;&amp;amp; not lubricated]" style="edgeLabel;html=1;align=center;verticalAlign=middle;resizable=0;points=[];rotation=90;" parent="18" vertex="1" connectable="0"><mxGeometry x="-0.4182" relative="1" as="geometry"><mxPoint x="20" y="73" as="offset"/></mxGeometry></mxCell><mxCell id="24" style="edgeStyle=none;html=1;exitX=1;exitY=1;exitDx=0;exitDy=0;entryX=0;entryY=0;entryDx=0;entryDy=0;" parent="1" source="6" target="22" edge="1"><mxGeometry relative="1" as="geometry"/></mxCell><mxCell id="28" value="[true &amp;amp;&amp;amp; not glued &amp;amp;&amp;amp; lubricated]" style="edgeLabel;html=1;align=center;verticalAlign=middle;resizable=0;points=[];rotation=30;" parent="24" vertex="1" connectable="0"><mxGeometry x="0.0899" y="1" relative="1" as="geometry"><mxPoint x="23" y="-10" as="offset"/></mxGeometry></mxCell><mxCell id="6" value="" style="rhombus;" parent="1" vertex="1"><mxGeometry x="365" y="240" width="30" height="30" as="geometry"/></mxCell><mxCell id="16" style="edgeStyle=none;html=1;exitX=0.5;exitY=1;exitDx=0;exitDy=0;entryX=0.5;entryY=0;entryDx=0;entryDy=0;" parent="1" source="9" target="12" edge="1"><mxGeometry relative="1" as="geometry"/></mxCell><mxCell id="9" value="Exit from previous stepable" style="html=1;align=center;verticalAlign=top;rounded=1;absoluteArcSize=1;arcSize=10;dashed=0;" parent="1" vertex="1"><mxGeometry x="200" y="290" width="160" height="40" as="geometry"/></mxCell><mxCell id="12" value="" style="ellipse;html=1;shape=endState;fillColor=strokeColor;" parent="1" vertex="1"><mxGeometry x="265" y="380" width="30" height="30" as="geometry"/></mxCell><mxCell id="13" value="" style="ellipse;html=1;shape=endState;fillColor=strokeColor;" parent="1" vertex="1"><mxGeometry x="610" y="240" width="30" height="30" as="geometry"/></mxCell><mxCell id="21" style="edgeStyle=none;html=1;exitX=0.5;exitY=1;exitDx=0;exitDy=0;entryX=0.5;entryY=0;entryDx=0;entryDy=0;" parent="1" source="17" target="20" edge="1"><mxGeometry relative="1" as="geometry"/></mxCell><mxCell id="17" value="Exit from previous stepable&lt;br&gt;&amp;amp;&amp;amp;&lt;br&gt;stuck = true" style="html=1;align=center;verticalAlign=top;rounded=1;absoluteArcSize=1;arcSize=10;dashed=0;" parent="1" vertex="1"><mxGeometry x="330" y="510" width="160" height="60" as="geometry"/></mxCell><mxCell id="20" value="" style="ellipse;html=1;shape=endState;fillColor=strokeColor;" parent="1" vertex="1"><mxGeometry x="395" y="610" width="30" height="30" as="geometry"/></mxCell><mxCell id="25" style="edgeStyle=none;html=1;exitX=0.5;exitY=1;exitDx=0;exitDy=0;entryX=0.5;entryY=0;entryDx=0;entryDy=0;" parent="1" source="22" target="23" edge="1"><mxGeometry relative="1" as="geometry"/></mxCell><mxCell id="22" value="Exit from previous stepable" style="html=1;align=center;verticalAlign=top;rounded=1;absoluteArcSize=1;arcSize=10;dashed=0;" parent="1" vertex="1"><mxGeometry x="550" y="370" width="160" height="40" as="geometry"/></mxCell><mxCell id="27" style="edgeStyle=none;html=1;exitX=0.5;exitY=1;exitDx=0;exitDy=0;" parent="1" source="23" target="26" edge="1"><mxGeometry relative="1" as="geometry"/></mxCell><mxCell id="23" value="random" style="html=1;align=center;verticalAlign=top;rounded=1;absoluteArcSize=1;arcSize=10;dashed=0;" parent="1" vertex="1"><mxGeometry x="600" y="440" width="60" height="30" as="geometry"/></mxCell><mxCell id="30" style="edgeStyle=none;html=1;exitX=0.5;exitY=1;exitDx=0;exitDy=0;entryX=0.531;entryY=0;entryDx=0;entryDy=0;entryPerimeter=0;" parent="1" source="26" target="29" edge="1"><mxGeometry relative="1" as="geometry"/></mxCell><mxCell id="31" value="[random = true]" style="edgeLabel;html=1;align=center;verticalAlign=middle;resizable=0;points=[];" parent="30" vertex="1" connectable="0"><mxGeometry x="-0.3758" y="-1" relative="1" as="geometry"><mxPoint x="-39" y="-2" as="offset"/></mxGeometry></mxCell><mxCell id="33" style="edgeStyle=none;html=1;exitX=1;exitY=0.5;exitDx=0;exitDy=0;entryX=0;entryY=0.5;entryDx=0;entryDy=0;" parent="1" source="26" target="32" edge="1"><mxGeometry relative="1" as="geometry"/></mxCell><mxCell id="26" value="" style="rhombus;" parent="1" vertex="1"><mxGeometry x="615" y="500" width="30" height="30" as="geometry"/></mxCell><mxCell id="36" style="edgeStyle=none;html=1;exitX=0.5;exitY=1;exitDx=0;exitDy=0;entryX=0.5;entryY=0;entryDx=0;entryDy=0;" parent="1" source="29" target="34" edge="1"><mxGeometry relative="1" as="geometry"/></mxCell><mxCell id="29" value="Enter to previous stepable&lt;br&gt;&amp;amp;&amp;amp;&lt;br&gt;Exit Model.Steppable" style="html=1;align=center;verticalAlign=top;rounded=1;absoluteArcSize=1;arcSize=10;dashed=0;" parent="1" vertex="1"><mxGeometry x="545" y="570" width="160" height="60" as="geometry"/></mxCell><mxCell id="38" style="edgeStyle=none;html=1;exitX=1;exitY=0.5;exitDx=0;exitDy=0;entryX=0;entryY=0.5;entryDx=0;entryDy=0;" parent="1" source="32" target="35" edge="1"><mxGeometry relative="1" as="geometry"/></mxCell><mxCell id="32" value="Enter to next stepable&lt;br&gt;&amp;amp;&amp;amp;&lt;br&gt;Exit Model.Steppable" style="html=1;align=center;verticalAlign=top;rounded=1;absoluteArcSize=1;arcSize=10;dashed=0;" parent="1" vertex="1"><mxGeometry x="750" y="485" width="160" height="60" as="geometry"/></mxCell><mxCell id="34" value="" style="ellipse;html=1;shape=endState;fillColor=strokeColor;" parent="1" vertex="1"><mxGeometry x="610" y="670" width="30" height="30" as="geometry"/></mxCell><mxCell id="35" value="" style="ellipse;html=1;shape=endState;fillColor=strokeColor;" parent="1" vertex="1"><mxGeometry x="990" y="500" width="30" height="30" as="geometry"/></mxCell></root></mxGraphModel></diagram></mxfile>